HIERARCHY
ROOT Hips
{
 OFFSET 0.000000 0.000000 0.000000
 CHANNELS 6 Xposition Yposition Zposition Yrotation Xrotation Zrotation
 JOINT Chest
 {
  OFFSET 0.000000 9.585900 0.002600
  CHANNELS 3 Yrotation Xrotation Zrotation
  JOINT Chest2
  {
   OFFSET 0.000000 9.601200 -0.005300
   CHANNELS 3 Yrotation Xrotation Zrotation
   JOINT Chest3
   {
    OFFSET 0.000000 9.561800 0.000000
    CHANNELS 3 Yrotation Xrotation Zrotation
    JOINT Chest4
    {
     OFFSET 0.000000 9.552100 0.000000
     CHANNELS 3 Yrotation Xrotation Zrotation
     JOINT Neck
     {
      OFFSET 0.000000 14.453000 0.000000
      CHANNELS 3 Yrotation Xrotation Zrotation
      JOINT Head
      {
       OFFSET 0.000000 8.936500 -0.011300
       CHANNELS 3 Yrotation Xrotation Zrotation
       End Site
       {
        OFFSET 0.000000 17.073600 -0.006000
       }
      }
     }
     JOINT RightCollar
     {
      OFFSET -2.921100 9.558500 0.000000
      CHANNELS 3 Yrotation Xrotation Zrotation
      JOINT RightShoulder
      {
       OFFSET -13.519700 0.000000 0.000000
       CHANNELS 3 Yrotation Xrotation Zrotation
       JOINT RightElbow
       {
        OFFSET 0.000000 -29.696600 0.000000
        CHANNELS 3 Yrotation Xrotation Zrotation
        JOINT RightWrist
        {
         OFFSET 0.000000 -24.004700 0.000000
         CHANNELS 3 Yrotation Xrotation Zrotation
         End Site
         {
          OFFSET 0.000000 -17.728500 0.000000
         }
        }
       }
      }
     }
     JOINT LeftCollar
     {
      OFFSET 2.921100 9.558500 0.000000
      CHANNELS 3 Yrotation Xrotation Zrotation
      JOINT LeftShoulder
      {
       OFFSET 13.519700 0.000000 0.000000
       CHANNELS 3 Yrotation Xrotation Zrotation
       JOINT LeftElbow
       {
        OFFSET 0.000000 -29.696600 0.000000
        CHANNELS 3 Yrotation Xrotation Zrotation
        JOINT LeftWrist
        {
         OFFSET 0.000000 -24.004700 0.000000
         CHANNELS 3 Yrotation Xrotation Zrotation
         End Site
         {
          OFFSET 0.000000 -17.728500 0.000000
         }
        }
       }
      }
     }
    }
   }
  }
 }
 JOINT RightHip
 {
  OFFSET -7.771700 -0.012900 -0.001300
  CHANNELS 3 Yrotation Xrotation Zrotation
  JOINT RightKnee
  {
   OFFSET 0.000000 -40.869800 0.001200
   CHANNELS 3 Yrotation Xrotation Zrotation
   JOINT RightAnkle
   {
    OFFSET 0.000000 -39.717900 0.002100
    CHANNELS 3 Yrotation Xrotation Zrotation
    JOINT RightToe
    {
     OFFSET 0.000000 -4.965400 11.033500
     CHANNELS 3 Yrotation Xrotation Zrotation
     End Site
     {
      OFFSET 0.000000 -1.423100 5.872300
     }
    }
   }
  }
 }
 JOINT LeftHip
 {
  OFFSET 7.771700 -0.012900 -0.001300
  CHANNELS 3 Yrotation Xrotation Zrotation
  JOINT LeftKnee
  {
   OFFSET 0.000000 -40.869800 0.001200
   CHANNELS 3 Yrotation Xrotation Zrotation
   JOINT LeftAnkle
   {
    OFFSET 0.000000 -39.717900 0.002100
    CHANNELS 3 Yrotation Xrotation Zrotation
    JOINT LeftToe
    {
     OFFSET 0.000000 -4.965400 11.033500
     CHANNELS 3 Yrotation Xrotation Zrotation
     End Site
     {
      OFFSET 0.000000 -1.423100 5.872300
     }
    }
   }
  }
 }
}
MOTION
Frames: 13
Frame Time: 0.008333
-30.388507 56.235166 37.033031 -168.158559 -30.985062 -9.730902 -4.774065 13.848001 3.674112 -2.377900 8.087021 1.538605 -2.975596 10.112898 1.880425 -2.402086 8.082823 1.543544 1.366058 20.017124 -2.090163 1.965499 -4.474412 -2.579008 1.225451 1.133936 -6.280302 -11.739632 -22.037880 -9.665344 171.822535 -59.830508 -153.930441 5.112259 -12.814914 -15.737138 -13.481396 0.919354 -4.413527 -2.914018 -18.382506 3.119693 -46.689230 -41.578108 47.046776 3.178004 -15.203251 8.200314 -24.012091 -27.614186 1.292510 97.552750 88.712356 94.805855 1.167045 -27.356736 -2.246773 -0.037797 0.832075 -0.020381 -14.906363 -44.408771 2.881887 175.037662 74.205486 173.258362 -0.255342 -24.322988 -0.270818 -0.081078 -1.440937 -0.050304
-30.391463 56.228578 37.032555 -168.120107 -30.960026 -9.732716 -4.738060 13.835814 3.663397 -2.315316 8.091083 1.531633 -2.926955 10.112551 1.872897 -2.363150 8.082726 1.536842 1.285613 20.012003 -2.010181 1.857129 -4.508105 -2.473510 1.240078 1.037120 -6.238094 -11.574295 -22.225689 -9.663610 171.321617 -60.014925 -153.561656 5.041017 -12.635992 -15.778968 -13.536486 0.956662 -4.397051 -2.862184 -18.442578 3.054726 -46.362394 -41.765778 46.843906 3.203789 -15.101601 8.117779 -24.045000 -27.638105 1.274521 98.132662 88.722240 95.388189 1.176178 -27.373611 -2.243365 -0.038468 0.833779 -0.021146 -14.944439 -44.452562 2.807726 174.905183 74.191380 173.167805 -0.209706 -24.311837 -0.316636 -0.078972 -1.445291 -0.065403
-30.392378 56.221753 37.032372 -168.085075 -30.932464 -9.731335 -4.726792 13.817672 3.651489 -2.227528 8.098690 1.522047 -2.876641 10.111323 1.865568 -2.322867 8.081886 1.530243 1.204612 20.013899 -1.932372 1.746488 -4.521823 -2.367064 1.260640 0.937978 -6.201644 -11.386931 -22.426937 -9.656390 170.676895 -60.237875 -153.072882 4.968131 -12.421843 -15.845642 -13.589247 0.998952 -4.384838 -2.795198 -18.509536 2.975389 -46.055465 -41.934679 46.660567 3.213594 -14.991614 8.029120 -24.067295 -27.665457 1.257499 98.751260 88.736392 96.015430 1.182036 -27.392407 -2.239193 -0.038357 0.836622 -0.021400 -14.962526 -44.507272 2.737385 174.759765 74.171170 173.062075 -0.168007 -24.276346 -0.351646 -0.094248 -1.473171 -0.077742
-30.364372 56.205136 37.051283 -167.937293 -30.730978 -9.921310 -4.752556 13.661520 3.800433 -2.191852 8.098443 1.517911 -2.825956 10.110798 1.858319 -2.282310 8.081596 1.523674 1.125890 20.012419 -1.857357 1.622618 -4.497861 -2.234579 1.293106 0.837775 -6.171561 -11.182107 -22.644064 -9.639415 169.899875 -60.508743 -152.466867 4.864598 -12.161049 -15.883247 -13.637806 1.040023 -4.375566 -2.714008 -18.579110 2.884277 -45.771802 -42.074786 46.496670 3.214164 -14.866988 7.937349 -24.309217 -27.769733 1.470243 98.120237 88.763347 95.408294 1.199420 -27.387037 -2.253044 -0.042411 0.836576 -0.023137 -15.255454 -44.849410 2.889396 174.612545 74.024546 173.006525 -0.029655 -23.808977 -0.415886 -0.185607 -1.886758 -0.124315
-30.327994 56.198273 37.055995 -167.862256 -30.635794 -10.127700 -4.625402 13.611446 4.012319 -2.219323 8.087008 1.517047 -2.776498 10.112108 1.850850 -2.242720 8.082819 1.517023 1.051188 19.999715 -1.786442 1.527253 -4.509820 -2.147035 1.341407 0.740005 -6.149271 -10.963073 -22.879791 -9.611433 169.007320 -60.835022 -151.756296 4.733812 -11.846205 -15.871394 -13.679902 1.073546 -4.370727 -2.635921 -18.642070 2.789200 -45.509676 -42.174710 46.364074 3.205326 -14.719626 7.839671 -24.482971 -27.749506 1.703409 96.436604 88.786211 93.746886 1.211713 -27.369573 -2.271906 -0.048865 0.830365 -0.027166 -15.494130 -45.064269 3.071697 174.453932 73.837183 172.923087 0.171096 -23.411479 -0.458503 -0.342664 -2.291916 -0.200166
-30.292195 56.203237 37.042001 -167.895387 -30.692896 -10.286843 -4.430394 13.688907 4.218132 -2.204015 8.085715 1.510153 -2.728146 10.115611 1.843030 -2.204059 8.085801 1.510170 0.980512 19.974867 -1.719195 1.438602 -4.521386 -2.074939 1.403026 0.641889 -6.130780 -10.721186 -23.131301 -9.580393 167.993125 -61.227531 -150.941048 4.568614 -11.483380 -15.786458 -13.716382 1.095638 -4.368721 -2.579268 -18.687360 2.698292 -45.268697 -42.227727 46.277692 3.190816 -14.553203 7.731298 -24.487525 -27.594731 1.884269 94.339135 88.811602 91.680774 1.205621 -27.354609 -2.282652 -0.053568 0.823393 -0.027015 -15.585901 -45.055306 3.210506 174.262718 73.695936 172.778685 0.411774 -23.188903 -0.472330 -0.546559 -2.567473 -0.299751
-30.275907 56.200846 37.037272 -167.897261 -30.699715 -10.323402 -4.333821 13.709094 4.279356 -2.166362 8.090390 1.503184 -2.681081 10.121246 1.835140 -2.166444 8.090410 1.503222 0.913918 19.944540 -1.655082 1.352103 -4.557882 -1.988894 1.475931 0.541054 -6.117486 -10.449253 -23.391883 -9.548890 166.856376 -61.694396 -150.015815 4.370708 -11.083667 -15.629004 -13.746057 1.104924 -4.365232 -2.548844 -18.708559 2.611161 -45.042177 -42.239155 46.238161 3.174712 -14.374608 7.603725 -24.468677 -27.562242 1.935435 94.140331 88.824236 91.498794 1.190050 -27.362906 -2.273866 -0.054288 0.821914 -0.027111 -15.591405 -45.068210 3.201251 174.075043 73.659248 172.654719 0.471251 -23.122171 -0.513189 -0.590541 -2.642431 -0.318504
-30.263281 56.196544 37.034705 -167.890499 -30.695171 -10.331034 -4.260547 13.716275 4.304102 -2.130890 8.095872 1.496670 -2.636724 10.127968 1.827780 -2.130899 8.095859 1.496706 0.851829 19.919832 -1.593300 1.271585 -4.607373 -1.911062 1.557238 0.440926 -6.113504 -10.144589 -23.655832 -9.515636 165.593733 -62.233052 -148.966092 4.148522 -10.664320 -15.429604 -13.762606 1.107188 -4.356576 -2.541104 -18.706584 2.519428 -44.821736 -42.225591 46.230156 3.160182 -14.180002 7.446114 -24.440739 -27.557821 1.954871 94.411824 88.839176 91.786385 1.180046 -27.379427 -2.268197 -0.053683 0.820731 -0.021617 -15.592112 -45.092937 3.176049 173.910356 73.629536 172.533836 0.482655 -23.087787 -0.540580 -0.605575 -2.685183 -0.322980
-30.244485 56.194207 37.029017 -167.899532 -30.710552 -10.364497 -4.166027 13.741301 4.357553 -2.097856 8.100860 1.491399 -2.595441 10.133997 1.821839 -2.097830 8.100853 1.491429 0.776579 19.899181 -1.526538 1.205920 -4.620452 -1.823123 1.640747 0.344695 -6.116524 -9.806681 -23.923435 -9.488892 164.186257 -62.831471 -147.770561 3.910035 -10.237188 -15.237385 -13.766839 1.111487 -4.343022 -2.544496 -18.687748 2.416911 -44.599368 -42.207325 46.230326 3.146133 -13.969400 7.242483 -24.435205 -27.518475 2.007536 94.288647 88.857891 91.669621 1.185965 -27.387362 -2.274916 -0.062934 0.820842 -0.018575 -15.605894 -45.093878 3.195259 173.729640 73.592677 172.392681 0.519896 -23.028042 -0.554146 -0.633557 -2.766105 -0.333218
-30.225392 56.190261 37.024734 -167.887084 -30.711302 -10.403985 -4.097026 13.755447 4.403954 -2.066972 8.105639 1.487197 -2.556841 10.139753 1.817251 -2.066975 8.105619 1.487266 0.673092 19.868071 -1.450123 1.181921 -4.613292 -1.797458 1.723398 0.246994 -6.123721 -9.445171 -24.205856 -9.474702 162.610249 -63.479918 -146.401652 3.668657 -9.795006 -15.109380 -13.764349 1.118920 -4.326023 -2.542144 -18.659154 2.299984 -44.366087 -42.204674 46.218994 3.126143 -13.745418 6.975400 -24.446609 -27.492798 2.067977 94.404403 88.900059 91.786828 1.193219 -27.393268 -2.268083 -0.060030 0.813333 -0.016889 -15.632904 -45.117236 3.207409 173.501086 73.542601 172.210165 0.543959 -22.967073 -0.571024 -0.674545 -2.841014 -0.358607
-30.195116 56.188645 37.016906 -167.893987 -30.728110 -10.501554 -3.998124 13.789859 4.520767 -2.039201 8.111215 1.482872 -2.522089 10.146642 1.812487 -2.103929 8.090649 1.507603 0.673982 19.887566 -1.439290 1.084996 -4.568544 -1.724291 1.870294 0.163322 -6.168719 -9.072608 -24.515830 -9.464674 160.821551 -64.174681 -144.809277 3.436196 -9.326000 -15.078323 -13.694885 1.140772 -4.344275 -2.517193 -18.624615 2.167052 -44.113267 -42.241618 46.176123 3.103591 -13.505080 6.644878 -24.484073 -27.416929 2.188143 93.472939 88.925735 90.868207 1.206759 -27.389648 -2.286663 -0.061406 0.806041 -0.019277 -15.708692 -45.118128 3.301472 173.153166 73.469712 171.930569 0.568484 -22.872537 -0.615503 -0.739909 -2.953636 -0.396336
-30.181583 56.182441 37.012669 -167.881121 -30.726583 -10.503715 -3.951391 13.802915 4.531850 -2.015824 8.115843 1.477703 -2.492910 10.152388 1.806486 -2.045750 8.105846 1.489149 0.597154 19.894923 -1.384372 0.991228 -4.498757 -1.651351 1.928308 0.038831 -6.165366 -8.694482 -24.854585 -9.446229 158.766984 -64.916417 -142.939376 3.215652 -8.827567 -15.124476 -13.720134 1.148149 -4.303648 -2.456997 -18.581602 2.025823 -43.826856 -42.345946 46.074334 3.097338 -13.261296 6.274022 -24.497610 -27.414496 2.198917 94.206233 88.956749 91.600859 1.221284 -27.408182 -2.290260 -0.060635 0.804813 -0.020979 -15.704067 -45.133549 3.277421 173.068440 73.447856 171.874543 0.594880 -22.864431 -0.624949 -0.756435 -2.976651 -0.404229
-30.166842 56.176707 37.006580 -167.873049 -30.733708 -10.513329 -3.904125 13.821735 4.548918 -1.997240 8.116977 1.471320 -2.469782 10.153695 1.798828 -1.997276 8.116956 1.471302 0.531995 19.936068 -1.329352 0.917653 -4.421838 -1.574900 2.010021 -0.079347 -6.163679 -8.302895 -25.218383 -9.414227 156.413521 -65.717784 -140.770357 3.015835 -8.298390 -15.191309 -13.741644 1.166794 -4.266774 -2.355594 -18.522799 1.889173 -43.486748 -42.539032 45.889056 3.119488 -13.040600 5.908044 -24.506854 -27.399173 2.213092 94.859898 88.984775 92.259552 1.237284 -27.425422 -2.298545 -0.061731 0.802605 -0.021654 -15.661722 -45.145185 3.231762 172.948211 73.423988 171.809887 0.652238 -22.822976 -0.635330 -0.800594 -3.029874 -0.421880
